<?xml version="1.0" encoding="utf-8"?>
<!DOCTYPE svg PUBLIC "-//W3C//DTD SVG 20010904//EN" "http://www.w3.org/TR/2001/REC-SVG-20010904/DTD/svg10.dtd">
<svg version="1.0" xmlns="http://www.w3.org/2000/svg" width="258pt" height="258pt" viewBox="0 0 258 258" style="" preserveAspectRatio="xMidYMid meet">
<g fill="#000000FF">
<path d="M 50.000 2.594 C 26.451 7.639 7.292 27.262 2.532 51.208 C 0.208 62.898 0.258 195.123 2.591 206.643 C 6.873 227.792 21.909 245.496 41.686 252.675 C 52.935 256.758 62.175 257.162 135.500 256.771 C 197.509 256.441 205.104 256.227 210.465 254.658 C 232.534 248.202 248.346 232.415 254.695 210.500 C 256.258 205.103 256.466 197.335 256.760 133.195 C 257.134 51.729 257.005 49.878 249.920 35.226 C 242.061 18.972 225.455 6.257 207.185 2.503 C 196.815 0.372 59.999 0.451 50.000 2.594 M 218.171 67.655 C 219.177 68.565 220.000 70.360 220.000 71.644 C 220.000 74.019 217.097 85.638 214.346 94.269 C 212.009 101.603 210.642 102.000 187.705 102.000 C 170.049 102.000 168.159 102.167 166.622 103.865 C 165.656 104.932 160.251 123.192 153.980 146.574 C 146.078 176.037 142.457 187.988 140.988 189.460 C 139.175 191.274 137.454 191.536 125.419 191.829 C 105.566 192.311 104.849 191.534 109.420 174.500 C 110.748 169.550 115.247 152.778 119.417 137.229 C 123.588 121.680 127.000 107.932 127.000 106.679 C 127.000 102.305 125.651 102.000 106.300 102.000 C 89.333 102.000 87.854 101.854 86.000 100.000 C 84.900 98.900 84.000 97.434 84.000 96.742 C 84.000 96.050 85.538 89.872 87.417 83.012 C 90.090 73.257 91.409 70.045 93.473 68.270 L 96.112 66.000 156.227 66.000 C 210.762 66.000 216.512 66.154 218.171 67.655 M 113.171 112.655 C 114.177 113.565 115.000 115.215 115.000 116.322 C 115.000 119.129 109.072 140.911 107.719 143.079 C 105.740 146.247 102.139 147.000 88.953 147.000 C 77.333 147.000 75.794 146.794 74.000 145.000 C 72.900 143.900 72.001 142.438 72.002 141.750 C 72.004 139.717 77.964 117.689 79.145 115.352 C 80.934 111.808 83.867 111.139 97.921 111.068 C 109.071 111.011 111.652 111.280 113.171 112.655 M 77.495 66.636 C 80.995 67.979 80.987 71.343 77.456 84.594 C 75.311 92.642 73.282 98.164 71.996 99.451 C 70.173 101.276 68.473 101.536 56.419 101.829 C 36.114 102.322 35.816 101.938 41.058 82.083 C 45.310 65.978 45.281 66.000 62.474 66.000 C 69.823 66.000 76.583 66.286 77.495 66.636 "/></g>
<g fill="#F7B435FF">
<path d="M 93.473 68.270 C 91.409 70.045 90.090 73.257 87.417 83.012 C 85.538 89.872 84.000 96.050 84.000 96.742 C 84.000 97.434 84.900 98.900 86.000 100.000 C 87.854 101.854 89.333 102.000 106.300 102.000 C 125.651 102.000 127.000 102.305 127.000 106.679 C 127.000 107.932 123.588 121.680 119.417 137.229 C 115.247 152.778 110.748 169.550 109.420 174.500 C 104.849 191.534 105.566 192.311 125.419 191.829 C 137.454 191.536 139.175 191.274 140.988 189.460 C 142.457 187.988 146.078 176.037 153.980 146.574 C 160.251 123.192 165.656 104.932 166.622 103.865 C 168.159 102.167 170.049 102.000 187.705 102.000 C 210.642 102.000 212.009 101.603 214.346 94.269 C 217.097 85.638 220.000 74.019 220.000 71.644 C 220.000 70.360 219.177 68.565 218.171 67.655 C 216.512 66.154 210.762 66.000 156.227 66.000 L 96.112 66.000 93.473 68.270 "/></g>
<g fill="#F7B435FF">
<path d="M 82.365 112.169 C 79.454 113.579 78.540 115.677 75.032 129.000 C 71.441 142.634 71.453 142.453 74.000 145.000 C 75.794 146.794 77.333 147.000 88.953 147.000 C 102.139 147.000 105.740 146.247 107.719 143.079 C 109.072 140.911 115.000 119.129 115.000 116.322 C 115.000 111.825 112.301 110.995 97.921 111.068 C 90.540 111.105 83.539 111.601 82.365 112.169 "/></g>
<g fill="#F7B435FF">
<path d="M 46.614 68.250 C 44.748 69.931 43.343 73.430 41.058 82.083 C 35.816 101.938 36.114 102.322 56.419 101.829 C 68.473 101.536 70.173 101.276 71.996 99.451 C 73.282 98.164 75.311 92.642 77.456 84.594 C 80.987 71.343 80.995 67.979 77.495 66.636 C 76.583 66.286 69.823 66.000 62.474 66.000 C 50.023 66.000 48.941 66.154 46.614 68.250 "/></g>
</svg>
